<svg xmlns="http://www.w3.org/2000/svg" width="280" height="228" viewBox="0 0 280 228" fill="currentColor">
    <g clip-path="url(#clip0_97_102)">
        <path
            d="M263.434 197.057V205.533L271.399 205.578V218.504C269.836 219.006 268.202 219.251 266.56 219.227C256.87 219.227 251.904 212.636 251.904 201.908C251.904 198.146 252.732 193.438 254.643 190.314C255.764 188.499 257.342 187.009 259.22 185.993C261.098 184.976 263.21 184.468 265.345 184.52C268.917 184.52 273.439 185.392 276.686 187.275H277.771V178.29C273.713 176.596 269.363 175.71 264.965 175.68C257.696 175.752 251.393 178.723 247.379 185.392C244.321 190.314 243.045 196.115 243.045 201.839C243.045 208.5 244.703 215.171 248.528 220.17C252.859 225.822 258.785 227.995 265.345 227.995C270.324 227.889 275.261 227.059 280 225.533V197.057H263.434Z"
            fill="currentColor"
        ></path>
        <path d="M233.432 176.242H224.825V228H233.432V176.242Z" fill="currentColor"></path>
        <path
            d="M206.012 175.65C203.017 175.578 201.552 177.501 199.367 180.361L190.374 196.545L181.384 180.361C179.196 177.498 177.727 175.578 174.734 175.65C171.61 175.726 169.188 178.759 169.122 182.304V227.996H176.31L176.39 188.094L190.467 210.557L204.356 188.094L204.435 227.996H211.619V182.304C211.559 178.759 209.135 175.727 206.012 175.65Z"
            fill="currentColor"
        ></path>
        <path
            d="M137.552 185.262H157.812V176.242H135.512C130.736 176.242 126.914 180.754 126.914 186.222V218.016C126.914 223.489 130.736 227.996 135.512 227.996H157.812V218.975H137.545C136.976 218.929 136.446 218.665 136.068 218.238C135.689 217.811 135.49 217.255 135.513 216.685V205.076H152.011V196.426H135.513V187.556C135.491 186.985 135.69 186.428 136.07 186C136.45 185.572 136.981 185.308 137.552 185.262Z"
            fill="currentColor"
        ></path>
        <path
            d="M110.059 178.165C106.426 176.169 102.987 176.391 99.2289 176.242H93.3053C88.5266 176.242 84.6408 180.754 84.6408 186.3V228H93.2374V209.293H99.2926C103.371 209.293 107.572 208.629 110.953 206.188C115.216 203.156 116.877 197.977 116.877 192.506C116.877 186.742 114.71 180.754 110.059 178.165ZM99.7368 200.419H93.2374V187.479C93.2374 186.222 93.2374 185.042 94.3224 185.042H99.4186C104.899 185.042 108.084 186 108.084 192.727C108.084 198.498 103.945 200.419 99.7368 200.419Z"
            fill="currentColor"
        ></path>
        <path
            d="M54.0527 175.65C52.7068 175.693 51.4088 176.159 50.3445 176.983C49.2803 177.806 48.5044 178.945 48.1279 180.235L32.7068 228H41.2478L45.1318 215.944H62.5906L66.4146 228H75.524L59.9139 180.235C59.0211 177.499 56.7269 175.65 54.0527 175.65ZM47.8739 207.149L53.8637 187.778L59.8528 207.149H47.8739Z"
            fill="currentColor"
        ></path>
        <path
            d="M8.59962 187.556C8.57705 186.985 8.77667 186.427 9.15672 186C9.53676 185.572 10.0678 185.308 10.6386 185.262H31.0286V176.242H8.66141C3.88397 176.242 -0.00311279 180.754 -0.00311279 186.222V228H8.59653V205.448H25.0995V196.501H8.59962V187.556Z"
            fill="currentColor"
        ></path>
        <path
            d="M106.202 67.6101C113.797 54.2042 123.988 43.982 133.509 37.4926C134.366 36.9081 135.219 36.3543 136.061 35.8331C139.611 33.5663 143.432 31.7572 147.436 30.4488C151.562 29.0229 155.383 29.7561 158.024 30.4488C170.102 34.1613 188.264 48.0006 199.836 68.4215C201.366 71.1296 202.762 73.801 204.024 76.4358C204.383 75.6839 204.72 74.9424 205.037 74.2114C205.077 74.1692 205.112 74.1224 205.142 74.0719C205.185 73.9643 205.224 73.8561 205.265 73.7486C204.152 71.5936 202.971 69.4139 201.721 67.2094C188.978 44.719 172.281 28.6897 158.991 24.6017C156.075 23.8396 151.873 23.0313 147.326 24.6017C142.414 26.1107 137.036 29.254 131.568 33.747C130.765 34.4071 129.961 35.0961 129.154 35.814C120.592 43.4356 111.938 54.2496 104.595 67.2094C100.49 74.414 97.0316 81.9682 94.2599 89.7834C94.7725 91.5659 95.3066 93.3164 95.8622 95.0349C97.8807 85.4168 101.368 76.1668 106.202 67.6101Z"
            fill="currentColor"
        ></path>
        <path
            d="M211.273 86.669C210.649 87.6322 209.99 88.5971 209.306 89.5646C215.406 108.523 213.514 124.239 203.735 132.958C203.707 132.98 203.674 132.989 203.645 133.008C193.947 141.168 175.065 150.521 152.973 150.521C145.594 150.497 138.25 149.505 131.129 147.571C129.544 147.146 127.998 146.682 126.489 146.187C115.755 142.664 106.938 137.521 101.428 132.755C96.8284 128.268 96.2906 126.277 95.1167 122.557C94.7237 120.754 94.4467 118.928 94.2876 117.09C92.8303 112.914 91.5163 108.466 90.354 103.776C88.6097 112.37 88.3675 120.039 89.708 126.037C90.9987 130.134 91.5918 132.33 96.6569 137.273C101.79 141.705 109.452 145.458 118.788 148.146C120.96 148.771 123.219 149.337 125.564 149.844C134.619 151.744 143.848 152.683 153.099 152.647C177.424 152.647 198.549 146.53 209.222 137.546C209.258 137.532 209.292 137.515 209.325 137.494C220.73 127.324 220.373 108.993 211.273 86.669Z"
            fill="currentColor"
        ></path>
        <path
            d="M175.649 19.2691C154.427 4.89565 132.485 -1.9023 118.788 0.461007C115.846 1.09778 111.727 2.27912 108.339 5.74694C104.344 9.57063 100.683 15.304 97.6176 22.432C99.0997 22.4542 100.608 22.5081 102.141 22.5937C104.542 18.3205 107.518 14.3971 110.986 10.9333C114.063 7.78878 117.804 6.71561 120.477 6.13908C132.911 3.9952 155.217 8.16187 174.485 21.2132C200.473 38.8111 212.34 59.7968 206.523 76.2195C206.4 76.5698 206.271 76.9165 206.136 77.2594C206.118 77.2895 206.097 77.3178 206.074 77.3443C205.821 77.9189 205.553 78.5047 205.26 79.104C201.984 85.8982 196.32 94.1301 188.403 101.7C186.563 104.609 184.482 107.55 182.159 110.522C193.559 103.174 202.654 94.8671 208.394 86.8811C209.052 85.9708 209.659 85.0642 210.228 84.1637C211.298 82.4742 212.243 80.7088 213.055 78.8815C213.08 78.8531 213.103 78.8225 213.123 78.7899C220.51 60.5375 204.873 39.0612 175.649 19.2691Z"
            fill="currentColor"
        ></path>
        <path
            d="M114.402 123.423C108.326 121.492 106.976 119.948 104.302 117.145C100.928 112.935 97.6378 106.776 95.0755 99.2981C94.3871 97.2902 93.7561 95.1923 93.1825 93.0041C88.067 73.421 89.2975 52.7196 96.6969 33.8804C95.609 33.95 94.5418 34.0355 93.4953 34.1367C90.8409 43.6464 89.2163 53.4138 88.6496 63.2708C87.8168 76.7474 88.8217 89.371 91.2224 99.9183C91.9679 103.249 92.921 106.529 94.0761 109.74C95.9814 114.984 98.3108 119.39 100.975 122.717C103.92 125.803 105.409 127.502 112.104 129.633C124.315 132.713 143.41 129.656 163.298 120.736C164.299 119.496 165.271 118.257 166.214 117.016C146.823 126.117 126.19 126.398 114.402 123.423Z"
            fill="currentColor"
        ></path>
        <path
            d="M96.5039 25.1475C93.754 25.1406 91.0121 25.4422 88.3294 26.0468C85.4321 26.8636 81.3928 28.2988 78.2195 31.9688C68.6886 42.2672 62.055 64.639 62.0003 90.6058C61.9493 116.458 68.4354 138.777 77.8575 149.174C80.981 152.07 82.5692 153.672 89.3755 155.382C97.7823 156.957 109.191 155.505 121.705 151.234C118.814 150.57 115.98 149.865 113.203 149.117C104.688 150.317 97.011 150.117 91.3048 149.051C85.1236 147.496 83.6835 146.039 80.8446 143.411C72.2934 133.969 63.5498 113.617 63.5946 90.1424C63.6432 66.5616 72.5226 46.3312 81.1728 36.9807C84.0547 33.6493 87.7246 32.3456 90.3577 31.6038C91.7156 31.287 93.0905 31.0481 94.4757 30.8883C95.6188 30.7519 96.8198 30.6547 98.0699 30.597C106.03 30.2331 116.042 31.5146 126.422 34.8767C127.29 34.1187 128.157 33.376 129.023 32.6486C118.764 28.3744 108.978 25.8833 100.642 25.2852C99.2181 25.1869 97.8376 25.1402 96.5039 25.1475Z"
            fill="currentColor"
        ></path>
        <path
            d="M146.208 41.2937C143.796 39.8673 141.384 38.5331 138.969 37.2911C138.179 37.7951 137.387 38.3102 136.595 38.8363C139.527 40.173 142.387 41.6642 145.162 43.3036C172.725 59.5953 185.806 80.3284 180.097 97.2846C180.084 97.3162 180.065 97.3452 180.041 97.37C177.619 103.639 174.351 109.549 170.33 114.934C169.369 116.248 168.343 117.565 167.266 118.878C160.933 126.621 153.287 133.19 144.678 138.284C140.284 140.851 135.662 143.008 130.873 144.728C132.171 145.131 133.479 145.52 134.797 145.896C138.455 144.167 142.144 142.224 145.828 140.066C159.746 131.914 171.151 122.16 178.699 112.672C180.335 110.628 181.848 108.488 183.23 106.265C184.777 103.801 186.077 101.189 187.109 98.469C187.132 98.4389 187.153 98.4068 187.17 98.3731C193.455 79.7021 176.562 59.2351 146.208 41.2937Z"
            fill="currentColor"
        ></path>
    </g>
    <defs>
        <clipPath id="clip0_97_102"><rect width="280" height="228" fill="white"></rect></clipPath>
    </defs>
</svg>

